<?xml version="1.0" encoding="UTF-8"?>
<svg version="1.1" xmlns="http://www.w3.org/2000/svg" width="372" height="421">
<path d="M0 0 C122.76 0 245.52 0 372 0 C372 138.93 372 277.86 372 421 C249.24 421 126.48 421 0 421 C0 282.07 0 143.14 0 0 Z " fill="#FCFCFD" transform="translate(0,0)"/>
<path d="M0 0 C0.91394531 0.50015625 1.82789063 1.0003125 2.76953125 1.515625 C3.42131348 1.87076172 4.0730957 2.22589844 4.74462891 2.59179688 C7.20774592 3.95434963 9.64546255 5.35615954 12.08203125 6.765625 C13.00137451 7.29430176 13.92071777 7.82297852 14.86791992 8.36767578 C25.86354056 14.70137531 36.81627035 21.1090671 47.76953125 27.515625 C59.97942542 34.65356313 72.19979003 41.77174122 84.45703125 48.828125 C93.30950678 53.9258768 102.1404631 59.05849212 110.95205688 64.22650146 C112.81095627 65.31577552 114.67131321 66.40252198 116.53198242 67.48876953 C121.79184113 70.56356178 127.03418067 73.65673548 132.203125 76.8828125 C132.99001709 77.3677417 133.77690918 77.8526709 134.58764648 78.35229492 C135.98880291 79.21976706 137.38120325 80.10163744 138.76196289 81.0012207 C140.74959628 82.28220939 140.74959628 82.28220939 143.76953125 83.515625 C147.18899657 82.44163756 150.22677099 80.79708696 153.33984375 79.0390625 C154.2218042 78.54172607 155.10376465 78.04438965 156.01245117 77.53198242 C156.9635376 76.99033447 157.91462402 76.44868652 158.89453125 75.890625 C159.90298096 75.31868408 160.91143066 74.74674316 161.95043945 74.1574707 C170.82035375 69.10378493 179.59695819 63.89797731 188.36572266 58.67138672 C197.02423658 53.51739962 205.75474963 48.49980625 214.5163269 43.52349854 C224.56360893 37.81366953 234.51468189 31.95366043 244.44238281 26.03881836 C251.03833298 22.1149609 257.66757576 18.27223881 264.37719727 14.54663086 C276.15666968 8.02719844 276.15666968 8.02719844 287.3828125 0.6328125 C289.76953125 -0.484375 289.76953125 -0.484375 292.04370117 0.25097656 C296.79052161 2.45326316 301.37506338 4.94673083 305.98046875 7.42822266 C307.76134339 8.38622045 309.54650699 9.33585907 311.33203125 10.28515625 C312.46640625 10.89488281 313.60078125 11.50460937 314.76953125 12.1328125 C315.80078125 12.68565918 316.83203125 13.23850586 317.89453125 13.80810547 C320.7470164 15.50225298 323.23423658 17.38171315 325.76953125 19.515625 C323.1281806 21.03948114 320.48682667 22.56333159 317.84545898 24.0871582 C315.51679161 25.43065183 313.18817055 26.77422535 310.85961914 28.11791992 C304.85823207 31.5808724 298.85600581 35.04234893 292.8515625 38.5 C282.36707116 44.5391221 271.89210179 50.59147414 261.47265625 56.7421875 C233.6633506 73.15688489 205.75130934 89.39705192 177.76953125 105.515625 C173.57321815 107.93346162 169.37732841 110.35203162 165.18182373 112.77127075 C163.49854903 113.74168973 161.81495238 114.71155019 160.13134766 115.68139648 C159.10831543 116.27122314 158.0852832 116.8610498 157.03125 117.46875 C156.13365967 117.98598633 155.23606934 118.50322266 154.3112793 119.03613281 C151.72999069 120.49257412 151.72999069 120.49257412 149.25317383 122.26855469 C146.76953125 123.515625 146.76953125 123.515625 144.29736328 123.37915039 C141.43819893 122.40243952 138.96331256 121.17371159 136.32421875 119.69921875 C135.26146729 119.10826416 134.19871582 118.51730957 133.10375977 117.90844727 C131.96221436 117.26319092 130.82066895 116.61793457 129.64453125 115.953125 C128.43622171 115.27577264 127.22780504 114.59861135 126.01928711 113.92163086 C116.58643366 108.61880862 107.27128141 103.125664 97.98120117 97.57666016 C89.85933418 92.73067746 81.67890782 88.0012591 73.45703125 83.328125 C63.30706067 77.55660039 53.22353402 71.68355477 43.18359375 65.72265625 C34.41813261 60.52066389 25.60136954 55.40614267 16.79296875 50.27734375 C13.80467159 48.53610083 10.81805861 46.79200708 7.83203125 45.046875 C-6.82475884 36.48282945 -21.51892468 27.9851483 -36.23046875 19.515625 C-33.6854256 16.61324862 -30.81917505 15.06283774 -27.42578125 13.265625 C-26.28496094 12.6571875 -25.14414062 12.04875 -23.96875 11.421875 C-22.76445366 10.78621057 -21.56002536 10.15079609 -20.35546875 9.515625 C-18.00281402 8.26766742 -15.65179656 7.01667261 -13.30078125 5.765625 C-12.25680176 5.21390625 -11.21282227 4.6621875 -10.13720703 4.09375 C-8.21956289 3.05262353 -6.33449497 1.94880562 -4.49047852 0.78222656 C-2.23046875 -0.484375 -2.23046875 -0.484375 0 0 Z " fill="#7138FC" transform="translate(41.23046875,296.484375)"/>
<path d="M0 0 C0.32311734 5.26470957 0.55794105 10.52358984 0.71411133 15.79589844 C0.77921984 17.58533237 0.86775157 19.37408143 0.98071289 21.16113281 C1.70343674 32.89476709 1.70343674 32.89476709 0 38 C-3.73453654 42.07824098 -7.96399443 43.87070274 -13 46 C-15.01877379 47.13845814 -17.02226139 48.30454137 -19.0078125 49.5 C-21.0460477 50.6681114 -23.08513858 51.83473077 -25.125 53 C-34.29345989 58.26189872 -43.4156483 63.59357421 -52.5 69 C-62.43633874 74.91034042 -72.41905056 80.73293844 -82.44140625 86.49609375 C-89.64326966 90.63760116 -96.8276063 94.80768121 -104 99 C-106.94960547 100.72099397 -109.8995543 102.44139793 -112.84960938 104.16162109 C-115.07041603 105.45755058 -117.29048079 106.75469363 -119.50976562 108.05322266 C-122.50581178 109.8057652 -125.50488495 111.55303023 -128.50585938 113.29711914 C-130.21422896 114.29167528 -131.91964871 115.29129291 -133.625 116.29101562 C-135.17960937 117.19303711 -135.17960937 117.19303711 -136.765625 118.11328125 C-137.68118164 118.64735596 -138.59673828 119.18143066 -139.54003906 119.73168945 C-142 121 -142 121 -146 122 C-146 175.46 -146 228.92 -146 284 C-177.5 302 -177.5 302 -180 302 C-180.37399507 276.22691613 -180.65601979 250.45423961 -180.82899475 224.6789875 C-180.91145112 212.71052396 -181.02383085 200.7437476 -181.20703125 188.77636719 C-181.36666124 178.34371431 -181.46976526 167.91228322 -181.50541592 157.47844303 C-181.52625369 151.95451948 -181.57509617 146.4340906 -181.69168091 140.91128922 C-181.80062916 135.70788572 -181.83372795 130.50939982 -181.8097229 125.30496407 C-181.81411073 123.39962411 -181.84576406 121.49411319 -181.9072876 119.58976173 C-182.33728867 105.58833351 -182.33728867 105.58833351 -178.42927551 101.26056623 C-174.59435591 98.13749699 -170.3939135 95.91645246 -165.90566158 93.87911105 C-163.37032179 92.70951974 -161.0042975 91.29965581 -158.6171875 89.85546875 C-157.03811648 88.96320497 -155.4573836 88.07387583 -153.875 87.1875 C-146.64219057 83.09464884 -139.45724566 78.93219779 -132.3125 74.6875 C-123.1890995 69.27180513 -114.01344729 63.95167202 -104.81811523 58.65917969 C-97.49081206 54.4405771 -90.176461 50.20067284 -82.875 45.9375 C-81.89144531 45.36322266 -80.90789062 44.78894531 -79.89453125 44.19726562 C-76.92940104 42.46533346 -73.96462837 40.73279104 -71 39 C-57.44610442 31.0779046 -43.88103243 23.17688673 -30.26757812 15.35742188 C-25.39478102 12.55474795 -20.53532146 9.73697331 -15.72265625 6.83203125 C-14.93624756 6.35926758 -14.14983887 5.88650391 -13.33959961 5.39941406 C-11.91257644 4.53794577 -10.4898335 3.66932688 -9.07250977 2.79199219 C-5.66730462 0.73886031 -4.08985723 0 0 0 Z " fill="#181818" transform="translate(181,2)"/>
<path d="M0 0 C6.7472142 1.1245357 6.7472142 1.1245357 9.828125 2.9765625 C10.53155029 3.39204346 11.23497559 3.80752441 11.9597168 4.2355957 C12.71551025 4.69409912 13.47130371 5.15260254 14.25 5.625 C15.94880763 6.63220417 17.64805054 7.6386744 19.34765625 8.64453125 C20.71301514 9.45784912 20.71301514 9.45784912 22.10595703 10.28759766 C27.27182443 13.34423625 32.48323478 16.32188543 37.6875 19.3125 C51.14147035 27.06668607 64.55251837 34.89356767 77.95898438 42.72949219 C89.28853012 49.35021882 100.62986471 55.94917958 112 62.5 C128.69414502 72.12090055 145.34347854 81.81713737 161.93411255 91.61550903 C163.13343607 92.32351766 164.33319619 93.03078729 165.53341675 93.73727417 C167.20596142 94.72222923 168.87645984 95.71065648 170.546875 96.69921875 C171.50432617 97.26471436 172.46177734 97.83020996 173.44824219 98.4128418 C174.29032227 98.936604 175.13240234 99.46036621 176 100 C177.05406351 100.54788917 177.05406351 100.54788917 178.12942123 101.10684681 C180.49694013 103.50293728 180.47870896 105.28367672 180.51632524 108.56952065 C180.50467387 109.33118989 180.4930225 110.09285913 180.48101807 110.87760925 C180.48443577 111.68871589 180.48785347 112.49982254 180.49137473 113.33550817 C180.49798157 116.06281353 180.47593183 118.78914222 180.45410156 121.51635742 C180.45297369 123.4675138 180.45360577 125.41867188 180.45587158 127.36982727 C180.457022 132.67541339 180.4334596 137.98063979 180.40557575 143.28614211 C180.38061669 148.82748717 180.37822444 154.36883995 180.37347412 159.91023254 C180.36102817 170.40750512 180.32818462 180.9046116 180.28807616 191.40181094 C180.24340883 203.35084378 180.22138409 215.29988443 180.20129442 227.24897993 C180.15945344 251.83274546 180.08906991 276.41636344 180 301 C176.32995118 299.56112164 172.90290323 297.95027724 169.4375 296.06640625 C167.87128906 295.2165918 167.87128906 295.2165918 166.2734375 294.34960938 C165.19320312 293.75986328 164.11296875 293.17011719 163 292.5625 C161.37964844 291.68368164 161.37964844 291.68368164 159.7265625 290.78710938 C153.88906541 287.61251991 153.88906541 287.61251991 151 286 C150.13189099 285.6075217 149.26378199 285.21504339 148.36936665 284.81067181 C146 283 146 283 145.38476086 280.11645985 C145.38936982 278.93195586 145.39397879 277.74745188 145.39872742 276.52705383 C145.39231923 275.53703103 145.39231923 275.53703103 145.38578159 274.52700776 C145.37753149 272.31069493 145.40506531 270.09626594 145.43237305 267.88012695 C145.4337831 266.29349818 145.43299237 264.70686613 145.43016052 263.12023926 C145.42872328 258.80828636 145.45816232 254.49702596 145.49303031 250.18523431 C145.52424284 245.68091336 145.52722051 241.17657732 145.53315735 236.67216492 C145.54871086 228.14040484 145.58975959 219.60896431 145.6399048 211.07734507 C145.69575149 201.36529262 145.72327298 191.65322507 145.74838197 181.94105208 C145.80067421 161.96052289 145.88864567 141.98028156 146 122 C145.0709082 121.70375732 144.14181641 121.40751465 143.18457031 121.10229492 C139.67355109 119.88700423 136.90512962 118.27511025 133.75 116.3125 C126.79607474 112.04809058 119.75858806 107.94192476 112.6875 103.875 C111.57697266 103.23554443 110.46644531 102.59608887 109.32226562 101.93725586 C105.88211981 99.95710911 102.4411693 97.9783675 99 96 C85.68811001 88.34571158 72.39113263 80.67186004 59.18212891 72.84106445 C50.53028405 67.7133783 41.84437578 62.64512953 33.15234375 57.5859375 C28.84730612 55.07969885 24.54883352 52.56258678 20.25390625 50.0390625 C19.15481934 49.39445068 18.05573242 48.74983887 16.92333984 48.08569336 C14.80648787 46.84391547 12.69087531 45.60002173 10.57666016 44.35375977 C9.15232666 43.51929321 9.15232666 43.51929321 7.69921875 42.66796875 C6.44371216 41.92969849 6.44371216 41.92969849 5.1628418 41.17651367 C2.92631556 39.87791935 2.92631556 39.87791935 0 39 C0 26.13 0 13.26 0 0 Z " fill="#1757FD" transform="translate(191,2)"/>
<path d="M0 0 C1.88112376 1.19559764 3.73628744 2.4336638 5.5546875 3.72265625 C6.8725327 4.48478359 8.19713543 5.23547491 9.53125 5.96875 C10.74957537 6.69557775 11.96566369 7.42616614 13.1796875 8.16015625 C14.64125568 9.03107565 16.10354487 9.90078576 17.56640625 10.76953125 C18.75242432 11.47432617 18.75242432 11.47432617 19.96240234 12.19335938 C24.95073071 15.13618183 29.97327036 18.01992265 34.9921875 20.91015625 C36.08168701 21.53809082 37.17118652 22.16602539 38.29370117 22.81298828 C42.93326245 25.48645064 47.57379513 28.15822238 52.21484375 30.82910156 C55.23011151 32.56438067 58.24485157 34.30057364 61.25930786 36.03726196 C62.96139224 37.01742252 64.66416163 37.99639321 66.36694336 38.9753418 C67.39698486 39.56871338 68.42702637 40.16208496 69.48828125 40.7734375 C70.39634521 41.29591064 71.30440918 41.81838379 72.23999023 42.35668945 C74.04594951 43.42243591 75.80989879 44.55946377 77.5546875 45.72265625 C81.53397183 45.38526778 84.47397226 43.8645196 87.9140625 41.9140625 C88.93798096 41.33736816 89.96189941 40.76067383 91.0168457 40.16650391 C92.1018335 39.54565918 93.18682129 38.92481445 94.3046875 38.28515625 C95.43285889 37.64626465 96.56103027 37.00737305 97.72338867 36.34912109 C104.45185205 32.52801844 111.14634313 28.65235459 117.79858398 24.70019531 C125.94331385 19.87094146 134.18122134 15.20307111 142.40942383 10.51806641 C143.54661865 9.87015137 144.68381348 9.22223633 145.85546875 8.5546875 C146.97131348 7.9251416 148.0871582 7.2955957 149.23681641 6.64697266 C151.47596716 5.34829817 153.68687226 3.99983961 155.86865234 2.60693359 C156.91359863 1.94773926 157.95854492 1.28854492 159.03515625 0.609375 C159.95578857 0.00697998 160.8764209 -0.59541504 161.82495117 -1.21606445 C164.5546875 -2.27734375 164.5546875 -2.27734375 167.62792969 -1.59790039 C170.1091109 -0.47838845 172.52268513 0.64555546 174.90234375 1.96484375 C175.67255859 2.39152344 176.44277344 2.81820313 177.23632812 3.2578125 C178.02201172 3.69996094 178.80769531 4.14210938 179.6171875 4.59765625 C180.80151367 5.24927734 180.80151367 5.24927734 182.00976562 5.9140625 C186.15779058 8.22972438 189.94480055 10.59941402 193.5546875 13.72265625 C177.88441906 23.19049015 162.10556794 32.46794719 146.29803467 41.70385742 C143.62397079 43.26656002 140.95076397 44.83072783 138.27734375 46.39453125 C126.74310713 53.13651999 115.19789882 59.86021104 103.60571289 66.50219727 C99.03990624 69.11904379 94.48624602 71.73860687 90.015625 74.515625 C89.37189941 74.90830566 88.72817383 75.30098633 88.06494141 75.70556641 C86.46390757 76.68750422 84.87571186 77.69029756 83.2890625 78.6953125 C80.5546875 79.72265625 80.5546875 79.72265625 77.8046875 79.26171875 C73.29463923 77.1259507 69.06838352 74.62274965 64.8046875 72.03515625 C62.8380267 70.85675828 60.87054329 69.67973237 58.90234375 68.50390625 C57.86996582 67.88644531 56.83758789 67.26898438 55.77392578 66.6328125 C50.2936628 63.38106234 44.76735347 60.20980603 39.2421875 57.03515625 C31.46014171 52.5573963 23.69109919 48.06089535 15.95922852 43.49707031 C9.87694124 39.90771712 3.77978639 36.34414546 -2.3203125 32.78515625 C-3.33375732 32.19307373 -4.34720215 31.60099121 -5.39135742 30.9909668 C-10.30482116 28.12343585 -15.22560362 25.27059066 -20.16796875 22.453125 C-21.05049316 21.94837646 -21.93301758 21.44362793 -22.84228516 20.92358398 C-24.49951414 19.97711927 -26.15924131 19.03501154 -27.82177734 18.09790039 C-28.55219238 17.68016357 -29.28260742 17.26242676 -30.03515625 16.83203125 C-30.67316162 16.47077148 -31.31116699 16.10951172 -31.96850586 15.73730469 C-33.4453125 14.72265625 -33.4453125 14.72265625 -34.4453125 12.72265625 C-30.71188058 10.41319847 -26.94704744 8.1720746 -23.14160156 5.984375 C-21.8553 5.23311809 -20.57884094 4.46472088 -19.31347656 3.67871094 C-7.4315484 -3.67498634 -7.4315484 -3.67498634 0 0 Z " fill="#6E38FC" transform="translate(106.4453125,265.27734375)"/>
<path d="M0 0 C3.44523807 27.85824319 3.44523807 27.85824319 -1.74023438 35.59716797 C-6.68281364 39.91708549 -12.67556185 42.22120324 -18.72363281 44.61132812 C-24.36456618 47.00220957 -29.50254633 50.23321245 -34.75 53.375 C-36.92715422 54.63459718 -39.10687325 55.88977105 -41.2890625 57.140625 C-42.38379883 57.77033203 -43.47853516 58.40003906 -44.60644531 59.04882812 C-46.92341919 60.38100476 -49.24047637 61.71303571 -51.55761719 63.04492188 C-53.93500764 64.4115135 -56.31195164 65.77887643 -58.68847656 67.14697266 C-60.91622039 68.42923896 -63.14469177 69.71024239 -65.37402344 70.98974609 C-69.84152424 73.56157764 -74.27584589 76.1492777 -78.6171875 78.9296875 C-82 81 -82 81 -84 81 C-84 112.02 -84 143.04 -84 175 C-112 190 -112 190 -113 190 C-113 148.75 -113 107.5 -113 65 C-106.4 61.37 -99.8 57.74 -93 54 C-88.59546125 51.38592416 -84.20264012 48.76604087 -79.82763672 46.10498047 C-76.69268426 44.20960312 -73.53420461 42.35458292 -70.375 40.5 C-69.69163574 40.09869873 -69.00827148 39.69739746 -68.30419922 39.28393555 C-65.86986601 37.8552745 -63.43490881 36.42767981 -61 35 C-59.36208513 34.03890326 -57.72417175 33.07780398 -56.08628845 32.11665344 C-53.0369333 30.32735805 -49.98723071 28.53865519 -46.9375 26.75 C-46.31896149 26.38717926 -45.70042297 26.02435852 -45.06314087 25.65054321 C-38.38458296 21.73356384 -31.70228792 17.82331809 -25.0078125 13.93359375 C-23.91863525 13.3003418 -22.82945801 12.66708984 -21.70727539 12.01464844 C-19.66837463 10.83002509 -17.62855356 9.64698377 -15.58764648 8.46582031 C-11.81078079 6.27110565 -8.06401487 4.09116796 -4.46484375 1.61328125 C-2 0 -2 0 0 0 Z " fill="#743AFC" transform="translate(181,78)"/>
<path d="M0 0 C3.47953075 1.31260033 6.62361333 2.84039734 9.82421875 4.73046875 C11.22401978 5.55272949 11.22401978 5.55272949 12.65209961 6.39160156 C14.1546228 7.28057129 14.1546228 7.28057129 15.6875 8.1875 C17.84859073 9.45765691 20.01006254 10.72716561 22.171875 11.99609375 C23.29271484 12.65464355 24.41355469 13.31319336 25.56835938 13.99169922 C31.17503176 17.27289494 36.80667987 20.5104803 42.4375 23.75 C50.73159618 28.52779165 59.007446 33.33314465 67.25 38.19921875 C73.11907923 41.6636058 78.99972888 45.10828507 84.87948608 48.55450439 C86.75284837 49.65253644 88.62606651 50.75081404 90.49926758 51.84912109 C91.69351229 52.54917044 92.88776649 53.24920361 94.08203125 53.94921875 C95.71099825 54.90406975 97.33847517 55.86382031 98.92294312 56.89082336 C101.08836414 58.14532568 101.08836414 58.14532568 104.06167603 58.84098816 C108.23400343 60.34395818 110.19481328 61.51702072 113 65 C115.19298135 73.20355922 114.4324503 82.13995861 114.21672726 90.54703593 C114.14145394 93.97537902 114.1346433 97.4038591 114.12042236 100.832901 C114.08319615 107.31850306 113.98483368 113.80166343 113.86422849 120.28619248 C113.72986482 127.67159965 113.66406428 135.05712663 113.60388327 142.44345272 C113.4786171 157.63032658 113.26769985 172.81491858 113 188 C109.11367334 186.12418636 105.25243043 184.21697027 101.42082214 182.23168945 C98.68174116 180.81525496 95.95236483 179.55288749 93.08760071 178.41479492 C89.23711297 176.63475847 86.79491098 175.2072853 84 172 C81.73535484 165.42628105 82.49045655 158.14709704 82.73046875 151.3125 C82.75473724 149.28375148 82.77323196 147.25492639 82.78620911 145.22607422 C82.83568186 139.9040629 82.9632105 134.58671694 83.10736084 129.26654053 C83.24072068 123.83067956 83.29979843 118.39405903 83.36523438 112.95703125 C83.50436159 102.30264536 83.72601282 91.65171161 84 81 C82.84211723 80.54775055 82.84211723 80.54775055 81.6608429 80.08636475 C78.83462269 78.93248001 76.30716873 77.54883224 73.66796875 76.015625 C72.63478516 75.4175 71.60160156 74.819375 70.53710938 74.203125 C69.43173828 73.55859375 68.32636719 72.9140625 67.1875 72.25 C66.02034057 71.57264387 64.85302025 70.89556488 63.68554688 70.21875 C60.12089194 68.15063886 56.56001978 66.07607734 53 64 C51.96182129 63.39478516 50.92364258 62.78957031 49.85400391 62.16601562 C45.93166873 59.87857379 42.00982275 57.59030578 38.08984375 55.29882812 C32.67699232 52.13654556 27.25612075 48.98878535 21.82421875 45.859375 C21.22650665 45.5149939 20.62879456 45.17061279 20.01296997 44.8157959 C17.10534351 43.14108368 14.19673518 41.46811326 11.28710938 39.796875 C10.24748047 39.19875 9.20785156 38.600625 8.13671875 37.984375 C7.21592529 37.45553711 6.29513184 36.92669922 5.34643555 36.38183594 C3.52937233 35.31175189 1.75458054 34.16972036 0 33 C-0.26711404 30.44604513 -0.34849029 28.13725626 -0.29296875 25.5859375 C-0.28872391 24.85629791 -0.28447906 24.12665833 -0.28010559 23.37490845 C-0.26329353 21.04123241 -0.22563868 18.7084156 -0.1875 16.375 C-0.17245634 14.79428329 -0.15876738 13.21355307 -0.14648438 11.6328125 C-0.11338201 7.75487656 -0.06158404 3.87758402 0 0 Z " fill="#1B59FD" transform="translate(191,78)"/>
<path d="M0 0 C0.55999199 8.36146774 0.98418901 16.71496335 1.24349213 25.09062386 C1.36808393 28.98240992 1.53618432 32.86127429 1.81054688 36.74560547 C3.53117832 61.7514944 3.53117832 61.7514944 -2.28707886 68.75167847 C-7.96769453 73.35197915 -14.25265386 76.20831384 -21.04199219 78.80415344 C-25.32864554 80.53713725 -29.15164179 82.86977463 -33.0625 85.3125 C-34.39639487 86.10112147 -35.73205586 86.8867719 -37.0703125 87.66796875 C-39.82727603 89.29683205 -42.5693945 90.94829347 -45.3046875 92.61328125 C-46.34677368 93.24592896 -46.34677368 93.24592896 -47.40991211 93.89135742 C-48.72828298 94.69349204 -50.04434147 95.49944395 -51.35766602 96.30981445 C-55.77887425 99 -55.77887425 99 -58 99 C-58.55999199 90.63853226 -58.98418901 82.28503665 -59.24349213 73.90937614 C-59.36808393 70.01759008 -59.53618432 66.13872571 -59.81054688 62.25439453 C-61.52361826 37.34303923 -61.52361826 37.34303923 -55.81161499 30.30270386 C-50.15433435 25.65867507 -43.77346924 22.84631841 -36.99432373 20.20751953 C-32.98042202 18.58883526 -29.39092479 16.48815653 -25.70703125 14.23828125 C-24.534384 13.56402259 -23.35932021 12.89394565 -22.18164062 12.22851562 C-18.71001396 10.25421664 -15.23937199 8.27821737 -11.76953125 6.30078125 C-10.77542236 5.73528564 -9.78131348 5.16979004 -8.75708008 4.5871582 C-6.8914332 3.51316809 -5.03982479 2.41447827 -3.2019043 1.29370117 C-1 0 -1 0 0 0 Z " fill="#7339FC" transform="translate(249,180)"/>
<path d="M0 0 C4.29236861 1.65494403 8.13146397 3.7546683 12.0625 6.125 C20.77428484 11.31922984 29.57741036 16.34885262 38.39846802 21.35430908 C40.16354977 22.35595317 41.92750917 23.35955285 43.69140625 24.36328125 C44.71435791 24.94376221 45.73730957 25.52424316 46.79125977 26.12231445 C47.85014404 26.74195068 48.90902832 27.36158691 50 28 C50.70780609 28.268694 51.41561218 28.537388 52.14486694 28.81422424 C54.6960934 29.95061662 56.18699931 30.85831112 58 33 C59.14488844 37.96583879 58.93145356 42.86973075 58.78125 47.92578125 C58.76631898 49.39834007 58.75493601 50.87093878 58.74694824 52.34355164 C58.71647898 56.20963297 58.63797022 60.07328909 58.54931641 63.93841553 C58.46730683 67.88634429 58.4309051 71.83466713 58.390625 75.78320312 C58.30496295 83.52323819 58.16852903 91.26127863 58 99 C54.23106811 97.53454535 50.88249321 95.84983181 47.4140625 93.76171875 C46.32867187 93.11219238 45.24328125 92.46266602 44.125 91.79345703 C43.26841797 91.27794281 43.26841797 91.27794281 42.39453125 90.75201416 C39.38542977 88.94179965 36.36914405 87.14369056 33.3515625 85.34765625 C32.43349823 84.80120453 32.43349823 84.80120453 31.49688721 84.24371338 C24.42016945 80.04406295 17.25376274 76.00519134 10.07275391 71.98706055 C9.18249512 71.48859619 8.29223633 70.99013184 7.375 70.4765625 C6.59898437 70.04424316 5.82296875 69.61192383 5.0234375 69.16650391 C3.30860626 68.17791032 1.64694756 67.09796504 0 66 C-0.36076355 63.25387573 -0.36076355 63.25387573 -0.34057617 59.71435547 C-0.34101425 59.07032776 -0.34145233 58.42630005 -0.34190369 57.76275635 C-0.33981094 55.63059336 -0.31645865 53.49921338 -0.29296875 51.3671875 C-0.28737448 49.89031402 -0.28310359 48.41343498 -0.28010559 46.93655396 C-0.26864335 43.04673937 -0.23916473 39.1572601 -0.20599365 35.26757812 C-0.17532222 31.29952531 -0.16160655 27.3314184 -0.14648438 23.36328125 C-0.11429599 15.57536786 -0.06308345 7.78773089 0 0 Z " fill="#1B1B1B" transform="translate(123,180)"/>
<path d="M0 0 C1.95870085 0.96625542 3.87973692 2.01055509 5.76953125 3.10546875 C6.89520508 3.75298096 8.02087891 4.40049316 9.18066406 5.06762695 C10.39151274 5.77384562 11.60211963 6.48047899 12.8125 7.1875 C14.05540422 7.9082445 15.29857135 8.62853581 16.54199219 9.34838867 C18.45301775 10.45556136 20.36336266 11.56383581 22.27182007 12.6754303 C25.98152179 14.83584831 29.70268617 16.9736157 33.44047546 19.08506775 C36.21472608 20.65312878 38.98149655 22.23432031 41.75 23.8125 C42.78487549 24.39217529 43.81975098 24.97185059 44.88598633 25.5690918 C46.29593872 26.37987183 46.29593872 26.37987183 47.734375 27.20703125 C48.56163086 27.6760083 49.38888672 28.14498535 50.24121094 28.62817383 C51.11181152 29.30722778 51.11181152 29.30722778 52 30 C52 30.99 52 31.98 52 33 C49.91821289 34.5871582 49.91821289 34.5871582 46.97265625 36.30078125 C45.88162598 36.94200928 44.7905957 37.5832373 43.66650391 38.24389648 C42.4654664 38.9339484 41.26412451 39.62347077 40.0625 40.3125 C38.84255177 41.02155579 37.62299171 41.73127983 36.40380859 42.44165039 C33.24117846 44.27914098 30.06948686 46.10033278 26.89422607 47.91589355 C25.04371481 48.97498107 23.19561837 50.03816367 21.34814453 51.10253906 C17.94745745 53.05995414 14.53769054 55.00107571 11.125 56.9375 C10.08093994 57.53409424 9.03687988 58.13068848 7.96118164 58.74536133 C6.98656982 59.29216553 6.01195801 59.83896973 5.0078125 60.40234375 C4.15848145 60.88179443 3.30915039 61.36124512 2.43408203 61.85522461 C-0.14071393 63.0661793 -2.16111909 63.76754071 -5 64 C-7.14282227 63.17407227 -7.14282227 63.17407227 -9.31640625 61.81640625 C-10.14994629 61.30843506 -10.98348633 60.80046387 -11.84228516 60.27709961 C-12.73995605 59.71128174 -13.63762695 59.14546387 -14.5625 58.5625 C-16.5179334 57.36457533 -18.47505284 56.16939978 -20.43359375 54.9765625 C-21.48272949 54.33493164 -22.53186523 53.69330078 -23.61279297 53.03222656 C-27.22254768 50.86647781 -30.86777095 48.77691719 -34.53515625 46.7109375 C-35.16674149 46.35452682 -35.79832672 45.99811615 -36.4490509 45.63090515 C-38.95889031 44.21611059 -41.46959911 42.80301844 -43.98587036 41.39968872 C-45.74644098 40.41680107 -47.50221975 39.4253453 -49.2578125 38.43359375 C-50.2698877 37.86697021 -51.28196289 37.30034668 -52.32470703 36.71655273 C-54.93437713 35.04210571 -56.90796062 33.27597203 -59 31 C-48.57963698 24.65492747 -38.03653147 18.53468555 -27.44702148 12.47631836 C-20.45886865 8.46755153 -20.45886865 8.46755153 -13.61328125 4.22265625 C-13.01467285 3.83730713 -12.41606445 3.45195801 -11.79931641 3.05493164 C-10.32927265 2.09279 -8.87282687 1.10995331 -7.41796875 0.125 C-4.34362277 -1.30539037 -3.23492122 -0.91264537 0 0 Z " fill="#1857FD" transform="translate(189,140)"/>
</svg>
